<?xml version="1.0" encoding="UTF-8" standalone="no"?>
<svg
   xmlns:dc="http://purl.org/dc/elements/1.1/"
   xmlns:cc="http://creativecommons.org/ns#"
   xmlns:rdf="http://www.w3.org/1999/02/22-rdf-syntax-ns#"
   xmlns:svg="http://www.w3.org/2000/svg"
   xmlns="http://www.w3.org/2000/svg"
   xmlns:sodipodi="http://sodipodi.sourceforge.net/DTD/sodipodi-0.dtd"
   xmlns:inkscape="http://www.inkscape.org/namespaces/inkscape"
   aria-hidden="true"
   focusable="false"
   data-prefix="fab"
   data-icon="paypal"
   class="svg-inline--fa fa-paypal fa-w-12"
   role="img"
   viewBox="0 0 32 32"
   version="1.1"
   id="svg4"
   sodipodi:docname="Icons.svg"
   width="32"
   height="32"
   inkscape:version="1.0.1 (3bc2e813f5, 2020-09-07)"
   inkscape:export-filename="C:\Users\tesse\Desktop\Files\Reps\Mark-Book_PUBLIC\icons\bitcoin.png.png"
   inkscape:export-xdpi="96"
   inkscape:export-ydpi="96">
  <metadata
     id="metadata10">
    <rdf:RDF>
      <cc:Work
         rdf:about="">
        <dc:format>image/svg+xml</dc:format>
        <dc:type
           rdf:resource="http://purl.org/dc/dcmitype/StillImage" />
        <dc:title />
      </cc:Work>
    </rdf:RDF>
  </metadata>
  <defs
     id="defs8" />
  <sodipodi:namedview
     pagecolor="#ffffff"
     bordercolor="#666666"
     borderopacity="1"
     objecttolerance="10"
     gridtolerance="10"
     guidetolerance="10"
     inkscape:pageopacity="0"
     inkscape:pageshadow="2"
     inkscape:window-width="1920"
     inkscape:window-height="1001"
     id="namedview6"
     showgrid="false"
     inkscape:zoom="3.2421875"
     inkscape:cx="-28.787952"
     inkscape:cy="-4.2699823"
     inkscape:window-x="-9"
     inkscape:window-y="-9"
     inkscape:window-maximized="1"
     inkscape:current-layer="svg4"
     inkscape:document-rotation="0" />
  <path
     fill="currentColor"
     d="m -63.861777,17.807147 c -0.239989,1.316508 -1.193087,7.453358 -1.474216,9.188133 -0.02057,0.123423 -0.06857,0.171421 -0.205704,0.171421 h -5.115186 c -0.521118,0 -0.898243,-0.45255 -0.829675,-0.953097 l 4.018095,-25.5005023 c 0.102852,-0.65825481 0.692538,-1.15880172 1.371363,-1.15880172 10.442933,0 11.320606,-0.25370271 13.987906,0.78167632 4.120948,1.5976391 4.498074,5.4511696 3.017,9.6201135 -1.474215,4.2923672 -4.971192,6.1368522 -9.6064,6.1917072 -2.975858,0.04799 -4.765488,-0.479978 -5.163183,1.65935 z m 16.8472,-9.866961 c -0.123423,-0.089143 -0.17142,-0.1234228 -0.205705,0.089143 -0.137137,0.7816762 -0.349698,1.5427838 -0.603399,2.303891 -2.73587,7.803057 -10.31951,7.124231 -14.022192,7.124231 -0.418265,0 -0.692538,0.226276 -0.747393,0.644541 -1.549641,9.626972 -1.858197,11.636019 -1.858197,11.636019 -0.06857,0.486834 0.239987,0.884529 0.726823,0.884529 h 4.354079 c 0.589686,0 1.076519,-0.431979 1.193086,-1.021666 0.048,-0.370267 -0.07542,0.418265 0.987381,-6.260273 0.315413,-1.5085 0.980525,-1.350793 2.009047,-1.350793 4.86834,0 8.667016,-1.974763 9.798392,-7.700206 0.445693,-2.386172 0.315413,-4.8957672 -1.631922,-6.3494124 z"
     id="path2"
     style="font-variation-settings:normal;opacity:1;vector-effect:none;fill:#ff3f7a;fill-opacity:1;stroke:none;stroke-width:2.13543;stroke-linecap:round;stroke-linejoin:round;stroke-miterlimit:4;stroke-dasharray:none;stroke-dashoffset:0;stroke-opacity:1;stop-color:#000000;stop-opacity:1" />
  <path
     fill="currentColor"
     d="m 30.769243,16.000001 c 0,8.156846 -6.612396,14.769242 -14.769242,14.769242 -8.1568534,0 -14.7692436,-6.612396 -14.7692436,-14.769242 0,-8.1568532 6.6123902,-14.7692439 14.7692436,-14.7692439 8.156846,0 14.769242,6.6123907 14.769242,14.7692439 z M 22.33344,13.895977 c 0.294017,-1.9652 -1.202439,-3.021682 -3.248635,-3.726435 l 0.663781,-2.6621552 -1.620625,-0.403834 -0.646212,2.592004 C 17.055705,9.5893718 16.618106,9.4892658 16.183304,9.3900489 l 0.650857,-2.6090341 -1.61973,-0.403835 -0.664198,2.661206 C 14.197558,8.9580518 13.851371,8.8786618 13.515375,8.7951709 l 0.0016,-0.0084 -2.235039,-0.5580181 -0.431105,1.730742 c 0,0 1.20244,0.2755522 1.177071,0.2925842 0.656398,0.163831 0.775028,0.598154 0.755136,0.942434 l -0.756089,3.032755 c 0.04528,0.01156 0.103862,0.02818 0.168477,0.05402 -0.05401,-0.01337 -0.11172,-0.02818 -0.171274,-0.04246 l -1.059812,4.248419 c -0.08034,0.199387 -0.283894,0.498463 -0.74269,0.384954 0.01614,0.02355 -1.1779664,-0.294016 -1.1779664,-0.294016 l -0.804568,1.854912 2.1090214,0.525675 c 0.392338,0.09832 0.776876,0.20123 1.155336,0.298125 l -0.670686,2.692589 1.618778,0.403829 0.664197,-2.663998 a 61.828871,61.828871 0 0 0 1.291535,0.335106 l -0.661933,2.651494 1.620626,0.403834 0.670692,-2.687528 c 2.763511,0.522938 4.841628,0.312001 5.716287,-2.187216 0.704878,-2.012308 -0.03505,-3.173068 -1.489072,-3.929988 1.058863,-0.244051 1.856521,-0.940468 2.069301,-2.379101 z m -3.70285,5.191805 c -0.500839,2.012309 -3.889313,0.92445 -4.987891,0.651695 l 0.889965,-3.567191 c 1.09852,0.274124 4.621344,0.816896 4.097926,2.915496 z m 0.501261,-5.220866 c -0.456953,1.830432 -3.277282,0.900448 -4.192141,0.672475 l 0.806831,-3.235354 c 0.914919,0.227967 3.861202,0.653478 3.38531,2.562879 z"
     id="path2-5"
     style="stroke-width:2.13543;font-variation-settings:normal;opacity:1;vector-effect:none;fill:#ff3f7a;fill-opacity:1;stroke:none;stroke-linecap:round;stroke-linejoin:round;stroke-miterlimit:4;stroke-dasharray:none;stroke-dashoffset:0;stroke-opacity:1;stop-color:#000000;stop-opacity:1" />
</svg>
